<svg xmlns="http://www.w3.org/2000/svg" viewBox="0 0 296.73 307.82"><defs><style>.cls-1,.cls-3{fill:#013449;}.cls-2{fill:#989898;}.cls-3{font-size:27.15px;font-family:GloriaHallelujah, Gloria Hallelujah;}.cls-4{fill:none;stroke:#013449;stroke-miterlimit:10;stroke-width:2px;}</style></defs><g id="Layer_1" data-name="Layer 1"><path class="cls-1" d="M69.42,115.64l-.21-.09a6.68,6.68,0,0,1-.61.69,4.36,4.36,0,0,1-.67.39c-.11-.22-.32-.44-.34-.67-.09-.87-.12-1.75-.18-2.63,0-.19,0-.39-.07-.74a7.55,7.55,0,0,1-.68.73c-.17.14-.42.31-.58.27a.63.63,0,0,1-.32-.52c0-1.08.12-2.16.2-3.23,0-.22,0-.44.06-.67-.13,0-.19,0-.24,0-1.17.12-1.37-.06-1.37-1.28a12.32,12.32,0,0,1,.18-1.31c-.46.08-.88.18-1.3.23a2.76,2.76,0,0,1-.64,0,2,2,0,0,1,.14-.75,13.78,13.78,0,0,1,1-1.29l2.33-3-1.22-.22a7.08,7.08,0,0,1,.91-.87c.54-.35,1.13-.63,1.69-1a1,1,0,0,0,.59-1.28c-.07-.22.17-.62.37-.83.45-.45,1-.83,1.52-1.31l-1.26-.57c.35-.4.62-.79,1-1.1a1.78,1.78,0,0,0,.76-1.73c0-.28.28-.7.53-1,.8-.87,1.65-1.7,2.51-2.57l-.87-.68a3.82,3.82,0,0,1,.29-.42,10.18,10.18,0,0,1,3.3-2.81A6.55,6.55,0,0,0,78.49,84a5.92,5.92,0,0,1,2.82-1.5,7.42,7.42,0,0,1,3.2-.68,27.23,27.23,0,0,0,3.11-.16,3.2,3.2,0,0,1,.87.26l.88.26a2.26,2.26,0,0,1,.54.09,2.23,2.23,0,0,0,1.85.28.68.68,0,0,1,.55.2c.83.73,1.65,1.48,2.44,2.26a1.18,1.18,0,0,1,.31.76c0,.44.16.66.59.72a1,1,0,0,1,1,.79c.06.24.55.36.94.59L96.67,89l.07.16A6.94,6.94,0,0,0,98,88.88c1.18-.47,2.35-1,3.52-1.49l.34-.16c1.53-.69,2-.46,2.17,1.23a1.06,1.06,0,0,0,.85,1,2.32,2.32,0,0,1,1.54,1.19c.06.13.08.27.15.49l-.92-.24-.12.18a6.68,6.68,0,0,0,1.22.93A5.86,5.86,0,0,1,109,94.27c.12.19.25.55.15.69a1.7,1.7,0,0,0-.08,1.41c.06.27-.17.59-.32,1a3.53,3.53,0,0,1,.53,3,.78.78,0,0,0,.22.47,4.58,4.58,0,0,0,.42.46s0,0,0,.12a4.71,4.71,0,0,1-.56.52c-.52.35-.46.66-.07,1.1l.22.24c.32-.2.36-.64.46-1l1.23.48c0-.76-.09-1.42-.13-2.08l.87-.19a4.46,4.46,0,0,0-1.4-2.64c-.47-.52-.54-.9.09-1.31a5.78,5.78,0,0,0,.67-.62c0-.1,0-.14,0-.15a6.63,6.63,0,0,1-.52-.54c-.12-.17-.28-.4-.25-.58a4.21,4.21,0,0,0-.64-3.56c.18-.53.45-.91.39-1.23a2,2,0,0,1,.09-1.7c.11-.16,0-.59-.18-.82a7,7,0,0,0-2.78-2.77,8.47,8.47,0,0,1-1.46-1.1l.15-.22,1.1.28a5.24,5.24,0,0,0-.18-.58,2.73,2.73,0,0,0-1.84-1.42,1.29,1.29,0,0,1-1-1.15c-.25-2-.77-2.3-2.61-1.47-.13.06-.26.14-.4.19-1.4.6-2.8,1.22-4.21,1.78a7.89,7.89,0,0,1-1.46.31l-.09-.2,1.09-1.28c-.48-.28-1.07-.43-1.14-.71a1.18,1.18,0,0,0-1.17-1c-.51-.07-.71-.33-.71-.87a1.42,1.42,0,0,0-.37-.91c-.94-.93-1.92-1.82-2.91-2.7a.83.83,0,0,0-.67-.23A2.69,2.69,0,0,1,87.33,73a2.68,2.68,0,0,0-.65-.11c-.36-.09-.7-.21-1.05-.31a3.52,3.52,0,0,0-1-.31,29.29,29.29,0,0,1-3.73.18,9.28,9.28,0,0,0-3.83.82A7.19,7.19,0,0,0,73.66,75a7.76,7.76,0,0,1-2.77,1.63c-1.7.7-2.75,2.1-4,3.36a4.5,4.5,0,0,0-.35.51l1,.81c-1,1-2,2-3,3.08-.3.32-.69.82-.63,1.16a2.13,2.13,0,0,1-.9,2.07A14.3,14.3,0,0,0,62,89l1.5.68c-.67.57-1.28,1-1.81,1.57-.25.25-.53.72-.45,1,.25.79-.13,1.19-.71,1.53s-1.38.72-2,1.14a8.43,8.43,0,0,0-1.09,1l1.46.27L56,99.77c-.4.51-.84,1-1.19,1.55a2.57,2.57,0,0,0-.16.9,4,4,0,0,0,.76,0c.51-.06,1-.18,1.56-.28a12.9,12.9,0,0,0-.21,1.57c0,1.46.24,1.67,1.63,1.54a.85.85,0,0,1,.29.06c0,.26,0,.53-.07.79-.09,1.29-.2,2.58-.24,3.87a.76.76,0,0,0,.39.62c.19,0,.49-.15.69-.31a9.63,9.63,0,0,0,.81-.88c.05.42.08.65.09.89.07,1,.11,2.1.21,3.14a2.51,2.51,0,0,0,.42.81,5.3,5.3,0,0,0,.8-.48,7.16,7.16,0,0,0,.72-.82l.25.11c.1,1.16.18,2.33.3,3.48a8.86,8.86,0,0,0,3,6.19,7.62,7.62,0,0,0,.89.59,15.26,15.26,0,0,0-.6-2.22c-.19-.69-.77-1.32-.38-2.31l1.68,3.22.73-1.75.2,0c.19.71.37,1.42.59,2.24l1.18-1.07a9.25,9.25,0,0,1-.69-2.76C69.56,117.58,69.5,116.61,69.42,115.64Z" transform="translate(14.37 -1.7)"/><path class="cls-1" d="M71.45,123.18h.14c-.07-.07-.12-.14-.18-.21Z" transform="translate(14.37 -1.7)"/><path class="cls-1" d="M84.9,147.86a1.47,1.47,0,0,0,1.08-1,4.84,4.84,0,0,0,.32-2.25,11.61,11.61,0,0,1,.29-2.45,27.72,27.72,0,0,0,.1-2.88,15.49,15.49,0,0,0-.21-1.91.53.53,0,0,1,0-.12c0-1.33-.4-2.65-.08-4a4.4,4.4,0,0,0-.16-1.42,6.82,6.82,0,0,1-.13-1.26c0-.75.17-1.49.23-2.23a1.64,1.64,0,0,0-.51-1.42.78.78,0,0,1,0-1.09,1.65,1.65,0,0,0,.08-2,.91.91,0,0,1-.13-.48,3.44,3.44,0,0,0-2.41-3c-.36.61-.59,1.32-1,2a1.2,1.2,0,0,0,.13.39,2,2,0,0,1-.09,2.37,1,1,0,0,0,0,1.31,2,2,0,0,1,.61,1.7c-.08.89-.23,1.77-.28,2.67a8.49,8.49,0,0,0,.16,1.5,5.38,5.38,0,0,1,.19,1.71c-.38,1.62.12,3.19.09,4.79a1,1,0,0,0,0,.14,22,22,0,0,1,.26,2.29c0,1.15,0,2.3-.12,3.45a17.3,17.3,0,0,0-.36,2.81c.7-.7,1.37-1.45,2.09-2.16C85.54,146.22,84.85,147,84.9,147.86Z" transform="translate(14.37 -1.7)"/><path class="cls-1" d="M151.3,125.79c-.15-.19-.23-.35-.35-.4a30.8,30.8,0,0,0-3.87-1.58c-1.84-.51-3.75-.8-5.63-1.17a12.2,12.2,0,0,0-1.7-.24,3,3,0,0,1-2.06-.48c-.1-.09-.33,0-.5,0a6.48,6.48,0,0,1-1.4-.2,28.45,28.45,0,0,0-7.15-1.19,39.45,39.45,0,0,0-4.35,0,1.24,1.24,0,0,1-1.32-1,8.19,8.19,0,0,0-1-1.56c-.17-.27-.52-.5-.55-.77a5.37,5.37,0,0,0-1.37-2.91c-.54-.64-1.11-1.26-1.66-1.9-.28-.34-.73-.67-.78-1a3.17,3.17,0,0,0-1.89-2.67.63.63,0,0,1-.22-.21,6.08,6.08,0,0,0-3.36-2.11,4.48,4.48,0,0,1-1.87-1l-.53.12c0,.55.07,1.1.11,1.74l-1-.4c-.13.47-.14,1-.87,1a4.22,4.22,0,0,0,2.66,2.46,5,5,0,0,1,2.81,1.76.73.73,0,0,0,.18.17,2.64,2.64,0,0,1,1.59,2.23c0,.31.41.59.65.87.45.54.93,1.06,1.38,1.59a4.45,4.45,0,0,1,1.15,2.43c0,.23.31.42.46.65a7,7,0,0,1,.8,1.3,1,1,0,0,0,1.1.8,34,34,0,0,1,3.64,0,23.76,23.76,0,0,1,6,1,5.5,5.5,0,0,0,1.17.16c.14,0,.33,0,.41.05a2.44,2.44,0,0,0,1.72.39,11.44,11.44,0,0,1,1.43.2c1.57.31,3.16.56,4.7,1a24.83,24.83,0,0,1,3.23,1.31c.1,0,.16.18.29.34a1.42,1.42,0,0,0-.63,1.78c0,.09-.29.32-.45.48s-.6.41-.7.68a2.08,2.08,0,0,1-2,1.48,3.28,3.28,0,0,0-2.44.7,4.31,4.31,0,0,1-1.54.4l-1.19.27c.65.56,1.06,1,1.91,1a4.67,4.67,0,0,1,1.87.35,11.2,11.2,0,0,1,1.61.84.73.73,0,0,1,.37,1.09,1.5,1.5,0,0,0,0,1.65c.2.32.13.55-.22.77a2.31,2.31,0,0,0-.7.82c-.19.35-.38.59-.81.53a.9.9,0,0,0-1.1.77c-.11.47-.42.56-.87.63a2.44,2.44,0,0,0-1.25.54,2.6,2.6,0,0,1-1.69.7c-.52,0-1,.22-1.57.29s-.78,0-1.17,0-.8.12-1.2.14a5,5,0,0,1-1.5,0c-1.13-.28-2.22-.74-3.35-1a11.12,11.12,0,0,0-2.35.06l.43.83a1.42,1.42,0,0,1-.21,1.89,12.32,12.32,0,0,0-1.77,2.7,4.69,4.69,0,0,1-1.71,2.54.3.3,0,0,0-.12.15c-.38.92-.73,1.86-1.79,2.24a.44.44,0,0,0-.21.3c-.21.95-1,1.51-1.49,2.28-.73,1.17-1.34,2.4-2,3.58a3.72,3.72,0,0,1-1,1.09c-.52.38-1.17.57-1.68,1a12.18,12.18,0,0,0-1.36,1.33c-.08.08-.14.2-.22.29-1,1.07-2,2.12-3,3.22a6.77,6.77,0,0,0-.5,1.12,2.75,2.75,0,0,1-.69,1,2.15,2.15,0,0,0-1,1.36,14.51,14.51,0,0,0-.45,2,2,2,0,0,0,.38,1.3,2.2,2.2,0,0,1,.54,1.46,3.16,3.16,0,0,0,.35,1.61l0,.09a3.48,3.48,0,0,1,.54-.45,3.4,3.4,0,0,0,.82-1.23,7.35,7.35,0,0,1,.6-1.33c1.15-1.32,2.36-2.57,3.55-3.86.1-.1.17-.24.27-.35a15.18,15.18,0,0,1,1.62-1.59c.62-.46,1.4-.69,2-1.15a4.32,4.32,0,0,0,1.14-1.3c.85-1.41,1.58-2.89,2.45-4.29.57-.92,1.53-1.59,1.78-2.73a.57.57,0,0,1,.26-.36c1.27-.45,1.68-1.58,2.14-2.68a.42.42,0,0,1,.14-.18,5.61,5.61,0,0,0,2.05-3A15.52,15.52,0,0,1,126.4,147a1.68,1.68,0,0,0,.26-2.25c-.14-.26-.27-.52-.51-1a12.23,12.23,0,0,1,2.8-.08c1.37.26,2.67.82,4,1.15a6.37,6.37,0,0,0,1.8,0c.48,0,.95-.15,1.43-.18s.94,0,1.4,0c.63-.08,1.25-.32,1.89-.35a3.11,3.11,0,0,0,2-.84,3,3,0,0,1,1.5-.65c.54-.08.91-.19,1.05-.75a1.06,1.06,0,0,1,1.31-.91c.51.07.74-.22,1-.65a2.62,2.62,0,0,1,.84-1c.41-.27.5-.54.26-.92a1.8,1.8,0,0,1,0-2,.86.86,0,0,0-.44-1.31,14.66,14.66,0,0,0-1.92-1,5.88,5.88,0,0,0-2.24-.41c-1,.09-1.52-.49-2.29-1.16l1.42-.33a5,5,0,0,0,1.85-.47,3.82,3.82,0,0,1,2.92-.84,2.5,2.5,0,0,0,2.43-1.77c.12-.33.55-.55.84-.82s.58-.47.54-.58A1.7,1.7,0,0,1,151.3,125.79Z" transform="translate(14.37 -1.7)"/><path class="cls-1" d="M103.84,186.87a4.91,4.91,0,0,1-.53.81,7.65,7.65,0,0,1-.75.61,6.14,6.14,0,0,0-1.06,1,.84.84,0,0,1-.9.4c-.72-.1-1.16.28-1.62.91a6.25,6.25,0,0,0,.8.12c.71,0,1.42,0,2.13,0,.46,0,.71.18.74.65a3.71,3.71,0,0,1-.22,2.39.75.75,0,0,0,0,.47c0,.23.15.44.21.66.33,1,.1,1.38-1,1.43a1.84,1.84,0,0,0-1.7.74.76.76,0,0,1-.53.25c-1.67.11-3.34.22-5,.26a8.56,8.56,0,0,1-1.47-.26c-.27,0-.66-.13-.82,0-1.08.95-2.44,1-3.74,1.26-.51.1-1.27-.06-1.4.55-.07.32.49.79.79,1.17a2.51,2.51,0,0,0,1.67,1,1.55,1.55,0,0,1,.78.36,3.16,3.16,0,0,0,1.64.94c.18,0,.37.42.44.68.34,1.24.66,2.49,1,3.74a.77.77,0,0,1-.2.62q-1,.81-2,1.53a1.75,1.75,0,0,1-.9.32c-1.49,0-3,0-4.46,0a2.33,2.33,0,0,1-.82-.32c-1.15-.52-2.27-1.11-3.45-1.55-.64-.24-1.2-.44-1.39-1.17a.64.64,0,0,0-.15-.28c-1.61-1.87-1.84-4.18-2.07-6.5a6.47,6.47,0,0,0-.52-2.22,11.67,11.67,0,0,1-.48-2.25c-.12-.49-.36-1-.51-1.45s-.24-1-.38-1.55a2.87,2.87,0,0,1,1.13-3.07c.39-.35.74-.74,1.13-1.08s.37-.63,0-1a6.62,6.62,0,0,1-1.84-5.86c.1-.72.22-1.31-.72-1.5l.47-1.43-2.85.79-.14-.18c.34-.66.69-1.31,1-2l-.14-.15a23.12,23.12,0,0,1-2.09,1.34,21.48,21.48,0,0,1-2.35.9l-.21-.23.53-1.29c-2.63-.14-3.08-.24-4.15-1l1.37-1a.64.64,0,0,0,.23-1,.77.77,0,0,1,0-.59c.18-.35.42-.66.73-1.14-1.5.32-2.86.8-4.38,0,.43-.13.71-.23,1-.29a6.11,6.11,0,0,0,3-1.37,6.55,6.55,0,0,0,.83-1.22l-.18-.19-1.83.48c.1-.8.18-1.52.29-2.46l-1.83,1.42a2.72,2.72,0,0,1,.94-2.66,1.79,1.79,0,0,0,.81-1.87,4.37,4.37,0,0,1,.13-1.43c0-.22.27-.4.53-.75.18.47.29.74.39,1a5.94,5.94,0,0,0,.29,1,.65.65,0,0,0,1.22,0,1.62,1.62,0,0,0,.09-1.62c-.29-.53-.56-1.07-.87-1.59s-.32-.73.2-1,.37-.59.25-1a5.41,5.41,0,0,1-.26-2l0,.05-.64-.87a5.22,5.22,0,0,0-1.58,3c-.49,1.64-1.19,3.23-1.8,4.85h-.29a6.82,6.82,0,0,1-.49-1.11,4.49,4.49,0,0,1,.91-3.95c.3-.41.53-.88.79-1.32l-.21-.21c-.32.09-.72.09-.94.29a7.51,7.51,0,0,0-1.55,1.69,6.74,6.74,0,0,0-.6,5.5c.14.46.27.9-.3,1.16s-.52.66-.24,1.14.69,1.28,1,1.91a2,2,0,0,1-.1,1.94.78.78,0,0,1-1.47,0,9.1,9.1,0,0,1-.35-1.22c-.11-.34-.25-.67-.46-1.23-.31.42-.58.64-.64.9a5.22,5.22,0,0,0-.15,1.71,2.14,2.14,0,0,1-1,2.25A3.25,3.25,0,0,0,57.57,177l2.19-1.69-.34,2.94,2.19-.57.21.22a7.2,7.2,0,0,1-1,1.46A7.43,7.43,0,0,1,57.18,181c-.34.07-.67.19-1.19.34,1.83.93,3.45.36,5.25,0a16,16,0,0,0-.87,1.36.89.89,0,0,0,0,.71A.75.75,0,0,1,60,184.6c-.54.37-1.07.76-1.64,1.16,1.28.88,1.82,1,5,1.17l-.63,1.54.25.28a27.17,27.17,0,0,0,2.81-1.08,24.68,24.68,0,0,0,2.5-1.61l.17.18-1.25,2.37.18.21,3.41-.94-.57,1.7c1.13.24,1,.94.86,1.8a7.9,7.9,0,0,0,2.21,7c.42.43.45.79,0,1.2s-.89.87-1.34,1.29c-1.09,1-1.81,2.1-1.37,3.67.18.61.28,1.24.47,1.86s.45,1.14.6,1.74a15.46,15.46,0,0,0,.57,2.69,7.84,7.84,0,0,1,.64,2.66c.26,2.77.54,5.54,2.47,7.78a1,1,0,0,1,.18.33c.23.87.89,1.12,1.67,1.41,1.41.52,2.75,1.23,4.12,1.86a3,3,0,0,0,1,.37c1.78,0,3.55,0,5.33,0a2.1,2.1,0,0,0,1.08-.38A29.91,29.91,0,0,0,91.06,223a.92.92,0,0,0,.24-.74c-.35-1.5-.73-3-1.14-4.48-.08-.31-.3-.78-.52-.81a3.81,3.81,0,0,1-2-1.13,2,2,0,0,0-.94-.44,3,3,0,0,1-2-1.2c-.36-.45-1-1-.94-1.4.15-.73,1.06-.55,1.67-.67,1.56-.3,3.19-.36,4.48-1.5.19-.16.66,0,1,0a10.94,10.94,0,0,0,1.75.32c2-.06,4-.19,6-.32a.9.9,0,0,0,.64-.3,2.2,2.2,0,0,1,2-.89c1.32-.06,1.6-.46,1.22-1.71a7.92,7.92,0,0,1-.26-.78.92.92,0,0,1,0-.57c.58-.92.31-1.9.26-2.86,0-.56-.34-.79-.88-.78-.85,0-1.7,0-2.55,0a7.77,7.77,0,0,1-1-.15c.56-.75,1.09-1.21,1.95-1.09a1,1,0,0,0,1.07-.47,7.55,7.55,0,0,1,1.28-1.17,9.1,9.1,0,0,0,.89-.73,5.43,5.43,0,0,0,.64-1c.3-.53.79-1.06.82-1.61a6,6,0,0,1,.74-2.95,7.47,7.47,0,0,0,1-4.8c-.17-1.82-.25-3.62-1.35-5.23a1.27,1.27,0,0,1-.17-.35,5.16,5.16,0,0,0-.53,2.28C104.51,186,104.09,186.42,103.84,186.87Z" transform="translate(14.37 -1.7)"/><path class="cls-1" d="M70.37,157.74a6.46,6.46,0,0,0,.42.93H71c.43-1.13.9-2.25,1.29-3.39l-.38.19.07-1.22a3.31,3.31,0,0,0-1.09.5A3.64,3.64,0,0,0,70.37,157.74Z" transform="translate(14.37 -1.7)"/><path class="cls-1" d="M81.64,148.69a2.34,2.34,0,0,0-.09-.24l-.84.86a8.18,8.18,0,0,0,.79-.51Z" transform="translate(14.37 -1.7)"/><path class="cls-1" d="M72.34,122.2l.38-.55c-.21-.39-.42-.8-.64-1.23A2.2,2.2,0,0,0,72.34,122.2Z" transform="translate(14.37 -1.7)"/><path class="cls-1" d="M74.09,121.65c-.14.35-.29.7-.47,1.13l.26.49.54-1-.16-.6Z" transform="translate(14.37 -1.7)"/><path class="cls-1" d="M223.85,233.55c.86-3.81-1-6.88-2.46-10.1-1.73-3.7-4.13-7.06-4.18-11.54,0-2.42-.57-4.71,1.15-6.7a5.47,5.47,0,0,1,1.88-1.32c4.64-2.16,8.69-5,9.44-10.47a29.22,29.22,0,0,0-7.7-24.79c-2.36-2.56-4.85-5-7.25-7.53a2.78,2.78,0,0,1-.39-3.74c3.31-5,3.38-10.61,2.61-16.24a41.1,41.1,0,0,0-7.81-19.57,52.62,52.62,0,0,1-7.78-13.63,21.65,21.65,0,0,0-10.12-11.7,6.73,6.73,0,0,1-2.2-2c-3.77-5.67-8.35-10.89-10.36-17.58-.59-2-1.48-3.49-3.39-4.3s-1.93-2.23-1.54-3.86a43.67,43.67,0,0,1,1.52-5.93,7.25,7.25,0,0,1,1.08-1.77c-.16.74-.32,1.47-.49,2.2-.43,1.8-.33,3.38,1.69,4.24s3.07,2.57,3.72,4.73c2.21,7.34,7.24,13.07,11.38,19.3a7.37,7.37,0,0,0,2.41,2.24,23.87,23.87,0,0,1,11.12,12.86,57.33,57.33,0,0,0,8.54,15,45.17,45.17,0,0,1,8.57,21.49c.85,6.18.77,12.31-2.87,17.83a3.07,3.07,0,0,0,.44,4.11c2.63,2.78,5.37,5.45,7.95,8.27a32.08,32.08,0,0,1,8.47,27.21c-.83,6-5.28,9.13-10.38,11.5a6.15,6.15,0,0,0-2.06,1.45c-1.89,2.19-1.28,4.7-1.26,7.36,0,4.91,2.69,8.6,4.59,12.67,1.65,3.53,3.64,6.91,2.7,11.09-.57,2.54-1.12,2.86-3.75,2.33-3.14-.65-4.74-3.29-7-5.07a5.85,5.85,0,0,1-2.25-4.89c0-.73,0-1.46-.1-2.19a6.66,6.66,0,0,0,2.67,1.25C222.83,236.16,223.33,235.86,223.85,233.55Z" transform="translate(14.37 -1.7)"/><path class="cls-1" d="M181.74,257.77a75.19,75.19,0,0,1,1.85-13.64c1-4.87.62-10.21-.06-15.23a22.85,22.85,0,0,1,.53-10.06c1.21-3.91,2.61-7.77,3.75-11.7s3.92-6.69,6-9.93a1.41,1.41,0,0,1,1.16-.54c4.68,1.16,7.37-1.51,10.09-5.25,1.92,1.05,4.09,2.14,6.12,3.44a2.06,2.06,0,0,1,.38,1.94c-.24.49-.49,1-.76,1.48l-.56-.3c-3,4.1-5.94,7-11.08,5.76a1.52,1.52,0,0,0-1.27.6c-2.32,3.56-5.38,6.64-6.62,10.9s-2.8,8.55-4.12,12.84a24.94,24.94,0,0,0-.58,11.06c.74,5.5,1.2,11.36.06,16.71a82.75,82.75,0,0,0-2,15,1.9,1.9,0,0,1-.83,1.4c-3.26,1.62-6.68,2.37-10.19,1a2.66,2.66,0,0,1-1.4-2.13,23.21,23.21,0,0,1,2.15-6.71,33.85,33.85,0,0,0,1.94-3.85,14.25,14.25,0,0,0,4.68-1.48A1.77,1.77,0,0,0,181.74,257.77Z" transform="translate(14.37 -1.7)"/><path class="cls-1" d="M148.29,182.72c3.52-2,6-5,6.47-9.16.23-1.92.37-3.71,1.77-5.28.59-.67.43-2,.74-2.95.16-.5.54-1.2.95-1.31,5.6-1.44,9.4-5.36,13-9.45a5.93,5.93,0,0,0,.94-3,23.06,23.06,0,0,0,0-3.22l.64-.45a12.86,12.86,0,0,1,2.38,2.53,2.4,2.4,0,0,1,.11.23c-.16-.15-.32-.3-.47-.46l-.7.49a24.43,24.43,0,0,1,0,3.53,6.55,6.55,0,0,1-1,3.25c-4,4.49-8.17,8.8-14.32,10.39-.45.11-.87.88-1.05,1.43-.34,1.07-.16,2.51-.81,3.24-1.54,1.73-1.69,3.69-1.94,5.79-.55,4.59-3.24,7.85-7.11,10.07-2.2,1.26-3.7.23-3.61-2.3a22.21,22.21,0,0,1,.6-4.67c0-.15.07-.29.11-.43C145.09,183,146.4,183.8,148.29,182.72Z" transform="translate(14.37 -1.7)"/><path class="cls-1" d="M169.2,188.83c.56-.44,1.05-1,1.69-1.59.35,2.34.7,4.65,1,6.93a11.43,11.43,0,0,1-1,1c-2.84,2.2-5.4,5.12-8.61,6.38-5.27,2.05-10.94,3.1-16.49,4.36-1.17.27-2.53-.36-3.81-.57,0-.26,0-.52,0-.78a8.81,8.81,0,0,1,1.52-1.23,112.89,112.89,0,0,1,10.56-5,35.25,35.25,0,0,0,7.26-3.65h0C164.29,193.49,166.62,190.83,169.2,188.83Z" transform="translate(14.37 -1.7)"/><path class="cls-1" d="M155.86,138.16c-.31-1.17-.64-2.34-1-3.49-.19-.61-.35-1.22-.5-1.83.09.3.17.61.27.92C155.08,135.21,155.49,136.68,155.86,138.16Z" transform="translate(14.37 -1.7)"/><path class="cls-1" d="M136.74,43.42c2.65,1,5.31,2,7.87,3.26,1.27.6,2.15.82,3.06-.49a3.86,3.86,0,0,1,4.38-1.5c1.09.24,2.33,0,3.34.42,3.5,1.39,8-.61,10.82,3,.06.08.29,0,.44.06,4.2.53,9.67-3.71,10.37-8.5a13.58,13.58,0,0,1,2.28,1.19c3.79,3,4.12,7.57.92,11.72-.18.22-.35.44-.54.66a7,7,0,0,0-2.79-4.92,13.28,13.28,0,0,0-2.09-1.09c-.63,4.37-5.61,8.23-9.44,7.74-.14,0-.34,0-.4,0-2.6-3.34-6.66-1.51-9.85-2.79a19.89,19.89,0,0,0-3-.37,3.49,3.49,0,0,0-4,1.36c-.83,1.19-1.63,1-2.79.44-2.34-1.1-4.75-2-7.17-3a4.11,4.11,0,0,0-4.8,1.28c-3.35,3.55-3.94,6.5-2,11a4.29,4.29,0,0,1,.46,2c0,.26,0,.51,0,.77a9.14,9.14,0,0,1-2-6.61,4.69,4.69,0,0,0-.5-2.14c-2.08-5-1.44-8.21,2.24-12.1A4.52,4.52,0,0,1,136.74,43.42Z" transform="translate(14.37 -1.7)"/><path class="cls-1" d="M147.56,166.43a6.14,6.14,0,0,1,.25-1.43c-.08.82-.18,1.64-.31,2.46C147.52,167.12,147.55,166.78,147.56,166.43Z" transform="translate(14.37 -1.7)"/><path class="cls-1" d="M106.19,22.66a15.65,15.65,0,0,1,15.41,15,14.21,14.21,0,0,0-11.3-5.87c-9.1-.23-15.12,7.7-14.57,14.2a13.64,13.64,0,0,0,.86,5.3,15.47,15.47,0,0,1-6.4-13C89.59,31.11,96.2,22.41,106.19,22.66Z" transform="translate(14.37 -1.7)"/><path class="cls-1" d="M179.68,53.29a8.38,8.38,0,0,1-2,5.76c-.44.56-.93,1.11-1.37,1.68a27.15,27.15,0,0,1,1.18-4.31A12.58,12.58,0,0,1,179.68,53.29Z" transform="translate(14.37 -1.7)"/><path class="cls-1" d="M217.4,203.89c-.75,1.52-1.54,3.25-2.83,4.23-2.46,1.88-2.84,4.22-2.13,6.81,1.49,5.41,3.28,10.73,4.77,16.14a17.75,17.75,0,0,1,.55,3.35c-1.33-1-2.4-2.34-3.71-3.36A5.36,5.36,0,0,1,212,226.6a19.8,19.8,0,0,0-.59-5c-1.36-4.93-3-9.78-4.34-14.7a5.32,5.32,0,0,1,1.94-6.2,7.18,7.18,0,0,0,1.82-2.38c2,1.07,4.12,2.17,6.16,3.47A2.26,2.26,0,0,1,217.4,203.89Z" transform="translate(14.37 -1.7)"/><path class="cls-1" d="M145,180.63a19.73,19.73,0,0,1,.55-4.26c.75-3,1.48-5.9,1.95-8.91A74.22,74.22,0,0,1,145,181,2.67,2.67,0,0,1,145,180.63Z" transform="translate(14.37 -1.7)"/><path class="cls-1" d="M137.89,75.38a19,19,0,0,0,4.7,6.71,28.27,28.27,0,0,1,7.47,9.7c1.38,2.76,2.66,5.55,4.08,8.29a17.82,17.82,0,0,1,1.13,13.52c-1.77,6.35-2.48,12.77-.91,19.24-1.67-6.15-1-12.24.64-18.26a16.16,16.16,0,0,0-1-12.32c-1.28-2.49-2.45-5-3.7-7.55a26,26,0,0,0-6.81-8.84,17.17,17.17,0,0,1-4.28-6.1A27.22,27.22,0,0,0,134.42,72a8.76,8.76,0,0,1-2.71-6.28,14.36,14.36,0,0,0,1,1.13C135.06,69.29,136.46,72.3,137.89,75.38Z" transform="translate(14.37 -1.7)"/><path class="cls-1" d="M157,148.79a43.43,43.43,0,0,1-7.35,12.83,9.8,9.8,0,0,0-1.83,3.38c.08-.77.14-1.53.17-2.31a7.85,7.85,0,0,1,1.89-4.38,39.56,39.56,0,0,0,6.69-11.68,8,8,0,0,0,.27-4.13c-.28-1.46-.6-2.9-1-4.34.55,2,1,4.05,1.42,6.1A8.91,8.91,0,0,1,157,148.79Z" transform="translate(14.37 -1.7)"/><path class="cls-1" d="M175.07,217.31c-.2,5.9,1.47,11.86,2.19,17.8.3,2.5.31,5,.41,7.56a39,39,0,0,0,.15,5.83,20.2,20.2,0,0,1-1.52,12,9.36,9.36,0,0,1-4.6-.58,2.47,2.47,0,0,1-1.28-1.94,21.13,21.13,0,0,1,2-6.11c2.61-4.53,4.15-9.15,3.14-14.46a36.2,36.2,0,0,1-.13-5.32c-.09-2.3-.1-4.61-.38-6.88-.65-5.42-2.17-10.84-2-16.21a84.22,84.22,0,0,0-1.11-14.86c.25-.25.51-.51.8-.78C173.91,201.55,175.33,209.27,175.07,217.31Z" transform="translate(14.37 -1.7)"/><path class="cls-1" d="M177.51,153c1.68,3.24,2.45,6.4,1.11,10.28-1.25,3.59-1,7.69-1.52,11.54-.25,1.76-.45,3.77-1.42,5.13-4.05,5.73-8.57,10.92-14.34,14.68-4.79,1.87-10,2.82-15,4-1.06.24-2.3-.33-3.46-.52l0-.71a7.67,7.67,0,0,1,1.39-1.12,101.38,101.38,0,0,1,9.61-4.55c8.65-3.17,14.56-9.48,19.68-16.7.88-1.24,1.07-3.07,1.29-4.67.51-3.51.25-7.24,1.38-10.51a10.87,10.87,0,0,0-.9-9.13A9.53,9.53,0,0,1,177.51,153Z" transform="translate(14.37 -1.7)"/><path class="cls-1" d="M121.62,39.37c0-.59,0-1.17,0-1.75A15,15,0,0,1,124.35,47a14.34,14.34,0,0,1-27.76,4.28,15.73,15.73,0,0,0,25-11.88Z" transform="translate(14.37 -1.7)"/><path class="cls-2" d="M117.74,210.38a7.09,7.09,0,0,0-1.69-.73,7,7,0,0,0,.51.74A4.65,4.65,0,0,1,117.74,210.38Z" transform="translate(14.37 -1.7)"/><path class="cls-2" d="M113.56,222.68c-1.68-3.91-1.6-7.92,0-10.27a11.11,11.11,0,0,1-.48-4.5,6.74,6.74,0,0,1,0-5.14c-3.36,2.25-2.8,6.32-2.08,8.73-1.55,2.35-1.62,6.37.06,10.28s4.86,6.79,7.71,7.1A13.19,13.19,0,0,1,113.56,222.68Z" transform="translate(14.37 -1.7)"/><path class="cls-2" d="M133.08,227.91a3.78,3.78,0,0,0,.74.07c-2.33-1.78-3.5-5.92-2.68-10.41s3.34-7.87,6.12-8.72a6.24,6.24,0,0,0,.65-2.53,5.88,5.88,0,0,0-3.59-4.52,6.2,6.2,0,0,1,.35,6.14c-2.79.85-5.31,4.28-6.13,8.72C127.52,222.22,129.56,227.25,133.08,227.91Z" transform="translate(14.37 -1.7)"/><path class="cls-2" d="M105.63,237.35c-2.52-2.87-3.35-6.44-2.22-8.75a6.34,6.34,0,0,1-.56-2.81,2.63,2.63,0,0,0-.35.15,4.55,4.55,0,0,1-.91-3.89c-1.86,1.76-1.47,4-.78,5.64-1.13,2.31-.3,5.89,2.23,8.75a10.1,10.1,0,0,0,5.75,3.44A11.36,11.36,0,0,1,105.63,237.35Z" transform="translate(14.37 -1.7)"/><path class="cls-2" d="M108.22,226.43a7.58,7.58,0,0,0-3.9-1,4.55,4.55,0,0,0,.78,1.39A5,5,0,0,1,108.22,226.43Z" transform="translate(14.37 -1.7)"/><path class="cls-2" d="M141.3,234.55a4.26,4.26,0,0,0,2.75,1l-.16-.11c-2.38-2.08-1.87-6.61,1.14-10.13,2.63-3.06,6.28-4.34,8.76-3.25a3.45,3.45,0,0,0-.79-3.59,2.94,2.94,0,0,1-1.36,2.91c-2.47-1.47-6.42-.23-9.2,3-.11.12-.2.25-.3.37a12,12,0,0,1-.95,1.38C139.34,229.33,139.3,232.81,141.3,234.55Z" transform="translate(14.37 -1.7)"/><path class="cls-2" d="M112.15,259.12a5.06,5.06,0,0,1-.63-2.18,13.47,13.47,0,0,1,1.79-8.26c1.94-3.21,5.26-5.31,6.51-9,.44-1.3.59-2.71,1-4a9.35,9.35,0,0,1,4.49-5.27,11.48,11.48,0,0,1,6.49-1.15,8.24,8.24,0,0,1,.85.11,8.16,8.16,0,0,0-3.45-1,12.53,12.53,0,0,0-4.6.4,4,4,0,0,1-1.08.68,3.92,3.92,0,0,1-1.25.33,9.31,9.31,0,0,0-4,5c-.44,1.3-.58,2.72-1,4-1.25,3.65-4.56,5.74-6.51,9a13.47,13.47,0,0,0-1.78,8.26,5,5,0,0,0,.62,2.18,4.34,4.34,0,0,0,1.62,1.43,11.36,11.36,0,0,0,3.22,1.22c-.2-.1-.42-.19-.62-.31A4.2,4.2,0,0,1,112.15,259.12Z" transform="translate(14.37 -1.7)"/><path class="cls-2" d="M148.09,239.49l.68.1a9,9,0,0,0-3.27-1l.53.08a10.55,10.55,0,0,1-2.3-.27,11.15,11.15,0,0,0,4.9,1.18Z" transform="translate(14.37 -1.7)"/><path class="cls-1" d="M116.05,209.65a6.69,6.69,0,0,1-.46-6,5.76,5.76,0,0,0-2.56,4.23,7.08,7.08,0,0,0,.93,1.58A5,5,0,0,1,116.05,209.65Z" transform="translate(14.37 -1.7)"/><path class="cls-1" d="M124.63,228.79c2.37-2,2.8-6.74.84-11.3-1.75-4.06-4.87-6.81-7.73-7.11a13.1,13.1,0,0,1,5.13,6.2c2.23,5.19,1.38,10.55-1.91,12a4.43,4.43,0,0,1-2.28.31,6,6,0,0,0,3.62.92l.44-.26A10.19,10.19,0,0,1,124.63,228.79Z" transform="translate(14.37 -1.7)"/><path class="cls-1" d="M124.63,228.79a10.19,10.19,0,0,0-1.89.75l-.44.26a3.92,3.92,0,0,0,1.25-.33A4,4,0,0,0,124.63,228.79Z" transform="translate(14.37 -1.7)"/><path class="cls-1" d="M141.31,219.06c-.95,5.16-4.2,8.94-7.49,8.92a4.48,4.48,0,0,0,1.86.84c1.95.37,3.94-.69,5.51-2.64a12.13,12.13,0,0,1,.95-1.38A14.71,14.71,0,0,0,143.9,220c.89-4.82-.53-9.25-3.22-10.76,0-2.35-.65-5.15-3.76-6.49a6.2,6.2,0,0,1,1,3.61,9.54,9.54,0,0,1,.17,2C140.78,209.81,142.19,214.24,141.31,219.06Z" transform="translate(14.37 -1.7)"/><path class="cls-1" d="M142.14,224.8a12.13,12.13,0,0,0-.95,1.38A12,12,0,0,0,142.14,224.8Z" transform="translate(14.37 -1.7)"/><path class="cls-1" d="M104.19,223a4.08,4.08,0,0,0-1.34,2.84,4.44,4.44,0,0,1,1.47-.33A4.6,4.6,0,0,1,104.19,223Z" transform="translate(14.37 -1.7)"/><path class="cls-1" d="M111.38,229c3,3.44,3.62,7.9,1.32,10a4.6,4.6,0,0,1-3.91,1c2.41,1.29,4.93,1.36,6.51,0,2.3-2.07,1.71-6.52-1.32-10a10.21,10.21,0,0,0-5.76-3.44A11.73,11.73,0,0,1,111.38,229Z" transform="translate(14.37 -1.7)"/><path class="cls-1" d="M151.07,231.94c-2.06,2.41-4.76,3.71-7,3.63,2.41,1.91,6.66.72,9.61-2.72,2.47-2.89,3.26-6.46,2.15-8.79a3.49,3.49,0,0,0-.21-4.66,2.94,2.94,0,0,1-1.37,2.91,3.68,3.68,0,0,0-.44-.23,4.38,4.38,0,0,1-.58,1.07C154.32,225.49,153.54,229.05,151.07,231.94Z" transform="translate(14.37 -1.7)"/><path class="cls-1" d="M136.68,233.92a12.65,12.65,0,0,0,7,4.48,13,13,0,0,1-4.45-3.57c-1.15-1.44-2.07-3.16-3.5-4.21a7,7,0,0,0-3.1-1.21,5.09,5.09,0,0,1,.5.3C134.61,230.77,135.53,232.49,136.68,233.92Z" transform="translate(14.37 -1.7)"/><path class="cls-1" d="M157.27,248.42c-1-4.48-4.52-8.11-8.5-8.83a12,12,0,0,1,5.9,7.92,6.15,6.15,0,0,1-.5,4.68,5.31,5.31,0,0,1-1.79,1.55,19.93,19.93,0,0,1-15.84,2.14,18.69,18.69,0,0,0-4.4-1.06c-4.17-.13-7.41,3.83-11.29,5.46a10.75,10.75,0,0,1-6.46.58,10.89,10.89,0,0,0,9,.33c3.88-1.64,7.13-5.59,11.29-5.46a18.65,18.65,0,0,1,4.41,1.06A19.94,19.94,0,0,0,155,254.65a5.45,5.45,0,0,0,1.8-1.55A6.2,6.2,0,0,0,157.27,248.42Z" transform="translate(14.37 -1.7)"/></g><g id="Layer_2" data-name="Layer 2"><text class="cls-3" transform="translate(23.58 95.28) rotate(104.77) scale(0.92 1)">W</text><text class="cls-3" transform="translate(18.11 117.44) rotate(98.16) scale(0.92 1)">h</text><text class="cls-3" transform="matrix(-0.05, 0.91, -1, -0.06, 16.31, 130.28)">o</text><text class="cls-3" transform="matrix(0.02, 0.91, -1, 0.02, 15.57, 143.74)"> </text><text class="cls-3" transform="translate(15.91 155.69) rotate(85.59) scale(0.92 1)">l</text><text class="cls-3" transform="translate(16.31 162.21) rotate(81.83) scale(0.92 1)">e</text><text class="cls-3" transform="translate(18.44 176.94) rotate(76.03) scale(0.92 1)">t</text><text class="cls-3" transform="translate(22.67 193.27) rotate(70.6) scale(0.92 1)"> </text><text class="cls-3" transform="matrix(0.39, 0.83, -0.91, 0.42, 26.77, 205.03)">t</text><text class="cls-3" transform="translate(34.05 220.34) rotate(59.33) scale(0.92 1)">h</text><text class="cls-3" transform="matrix(0.54, 0.74, -0.81, 0.59, 40.74, 231.59)">e</text><text class="cls-3" transform="translate(49.56 243.49) rotate(48.47) scale(0.92 1)"> </text><text class="cls-3" transform="translate(57.83 252.82) rotate(42.9) scale(0.92 1)">d</text><text class="cls-3" transform="translate(68.84 262.92) rotate(36.85) scale(0.92 1)">o</text><text class="cls-3" transform="matrix(0.79, 0.46, -0.51, 0.86, 80.03, 271.26)">g</text><text class="cls-3" transform="translate(93.51 279.03) rotate(23.98) scale(0.92 1)">s</text><text class="cls-3" transform="translate(105.75 284.37) rotate(18.05) scale(0.92 1)"> </text><text class="cls-3" transform="translate(117.73 288.24) rotate(11.92) scale(0.92 1)">o</text><text class="cls-3" transform="translate(131.45 291.04) rotate(5.41) scale(0.92 1)">u</text><text class="cls-3" transform="matrix(0.91, -0.03, 0.03, 1, 145.54, 292.37)">t</text><path class="cls-4" d="M257,225c-24.61,34.85-65.62,56.22-112.47,56.22" transform="translate(14.37 -1.7)"/><path class="cls-4" d="M17.05,100.63C35.63,44.47,83.17,2.88,143.59,2.88c76.09,0,137.77,64,137.77,143,0,30.34-9,57.35-24.33,79.1" transform="translate(14.37 -1.7)"/></g></svg>